<svg xmlns="http://www.w3.org/2000/svg" width="167.447" height="143.717" viewBox="0 0 167.447 143.717">
  <g id="logoMark" transform="translate(-18 -18)">
    <path id="logoMark_PathItem_" data-name="logoMark &lt;PathItem&gt;" d="M123.257,59.664,87.6,121.75l2.291,4.1,2.525,4.2L132.852,59.67Z" transform="translate(52.595 31.486)" fill="#fff"/>
    <path id="logoMark_PathItem_2" data-name="logoMark &lt;PathItem&gt;" d="M111.145,59.69,83.18,108.379l3.372,5.81,31.311-54.514Z" transform="translate(49.257 31.495)" fill="#fff"/>
    <path id="logoMark_PathItem_3" data-name="logoMark &lt;PathItem&gt;" d="M99.682,59.664,79,95.74l2.509,4.323,23.172-40.393Z" transform="translate(46.098 31.486)" fill="#fff"/>
    <path id="logoMark_PathItem_4" data-name="logoMark &lt;PathItem&gt;" d="M60.844,22.261l2.408,4.149L27.595,88.5l-4.8.011L18,88.52,58.436,18.111Z" transform="translate(0 0.084)" fill="#fff"/>
    <path id="logoMark_PathItem_5" data-name="logoMark &lt;PathItem&gt;" d="M63.115,32.947,35.152,81.637l-3.359.008-3.359.008L59.743,27.137l1.686,2.905Z" transform="translate(7.885 6.905)" fill="#fff"/>
    <path id="logoMark_PathItem_6" data-name="logoMark &lt;PathItem&gt;" d="M63.432,39.477,42.685,75.6l-5,.005L60.923,35.154Z" transform="translate(14.877 12.963)" fill="#fff"/>
    <path id="logoMark_PathItem_7" data-name="logoMark &lt;PathItem&gt;" d="M125.288,114.593l-2.407-4.149-2.409-4.15-63.969.144L68,86.417a3.436,3.436,0,0,1,2.974-1.726l36.91-.083-1.255-2.163-1.254-2.161L67.8,80.116a6.515,6.515,0,0,0-5.676,3.267l-13.25,23.072h0l-2.39,4.159-2.39,4.161Z" transform="translate(19.72 46.942)" fill="#fff"/>
    <path id="logoMark_PathItem_8" data-name="logoMark &lt;PathItem&gt;" d="M106.288,93.226,104.6,90.32l-1.685-2.9L64,87.5a6.221,6.221,0,0,0-5.381,3.123l-1.557,2.711Z" transform="translate(29.522 52.459)" fill="#fff"/>
    <path id="logoMark_PathItem_9" data-name="logoMark &lt;PathItem&gt;" d="M45.847,26.494l63.976-.156-11.5,20.02a3.437,3.437,0,0,1-2.972,1.726L58.4,48.117,60.9,52.44l37.621.219A6.511,6.511,0,0,0,104.2,49.39l13.252-23.07h0l2.39-4.159L122.233,18l-81.2.195Z" transform="translate(17.405)" fill="#fff"/>
    <path id="logoMark_PathItem_10" data-name="logoMark &lt;PathItem&gt;" d="M46.267,27.188l3.367,5.8L88.566,32.9a6.218,6.218,0,0,0,5.381-3.122L95.5,27.069Z" transform="translate(21.362 6.854)" fill="#fff"/>
    <path id="logoMark_PathItem_11" data-name="logoMark &lt;PathItem&gt;" d="M58.756,128.439l2.389-4.16,2.389-4.16L27.6,58.192l-4.8.011-4.8.011Z" transform="translate(0.002 30.374)" fill="#fff"/>
    <path id="logoMark_PathItem_12" data-name="logoMark &lt;PathItem&gt;" d="M69.249,96.451a4.782,4.782,0,0,0-.011-4.784L49.671,58.206l-5,.005L63.51,90.418a2.751,2.751,0,0,1,.005,2.749l-4,6.968L35.158,58.173,31.8,58.18l-3.359.007L60,112.561Z" transform="translate(7.89 30.359)" fill="#fff"/>
    <path id="logoMark_PathItem_13" data-name="logoMark &lt;PathItem&gt;" d="M92.218,19.654l-2.389,4.16-2.389,4.16L123.377,89.9l9.595.006Z" transform="translate(52.476 1.25)" fill="#fff"/>
    <path id="logoMark_PathItem_14" data-name="logoMark &lt;PathItem&gt;" d="M79.964,44.816a4.787,4.787,0,0,0,.012,4.784L99.433,83.059l5,.007L85.705,50.8a2.657,2.657,0,0,1-.007-2.7l4-6.97,24.353,41.965,3.359-.007,3.359-.009L89.218,28.706Z" transform="translate(46.348 8.091)" fill="#fff"/>
  </g>
</svg>
