<svg id="Component_2_1" data-name="Component 2 – 1" xmlns="http://www.w3.org/2000/svg" width="198.867" height="170.684" viewBox="0 0 198.867 170.684">
  <g id="Group_2" data-name="Group 2">
    <path id="logoMark_PathItem_" data-name="logoMark &lt;PathItem&gt;" d="M129.948,59.664,87.6,133.4l2.721,4.87,3,4.986,48.027-83.585Z" transform="translate(57.523 27.212)" fill="#7bafd4"/>
    <path id="logoMark_PathItem_2" data-name="logoMark &lt;PathItem&gt;" d="M116.393,59.693,83.18,117.518l4,6.9,37.186-64.743Z" transform="translate(52.73 27.224)" fill="#7bafd4"/>
    <path id="logoMark_PathItem_3" data-name="logoMark &lt;PathItem&gt;" d="M103.563,59.664,79,102.51l2.98,5.135L109.5,59.672Z" transform="translate(48.194 27.212)" fill="#7bafd4"/>
    <path id="logoMark_PathItem_4" data-name="logoMark &lt;PathItem&gt;" d="M68.883,23.039l2.86,4.928L29.4,101.739l-5.7-.021-5.7.013,48.023-83.62Z" transform="translate(-18 -17.879)" fill="#7bafd4"/>
    <path id="logoMark_PathItem_5" data-name="logoMark &lt;PathItem&gt;" d="M69.565,34.037,36.346,91.945l-3.979,0-4-.006L65.56,27.137l2,3.45Z" transform="translate(-6.619 -8.085)" fill="#7bafd4"/>
    <path id="logoMark_PathItem_6" data-name="logoMark &lt;PathItem&gt;" d="M68.263,40.288,43.623,83.193l-5.937.006,27.6-48.046Z" transform="translate(3.362 0.614)" fill="#7bafd4"/>
    <path id="logoMark_PathItem_7" data-name="logoMark &lt;PathItem&gt;" d="M140.523,121.062l-2.859-4.927-2.861-4.929-75.973.171L72.489,87.6a4.081,4.081,0,0,1,3.532-2.05l43.836-.1-1.491-2.569-1.489-2.567-44.629-.2A7.738,7.738,0,0,0,65.507,84L49.771,111.4h0l-2.838,4.94L44.1,121.279Z" transform="translate(10.317 49.405)" fill="#003c71"/>
    <path id="logoMark_PathItem_8" data-name="logoMark &lt;PathItem&gt;" d="M115.524,94.316l-2-3.451-2-3.449-46.213.1a7.389,7.389,0,0,0-6.391,3.71l-1.85,3.219Z" transform="translate(24.392 57.327)" fill="#003c71"/>
    <path id="logoMark_PathItem_9" data-name="logoMark &lt;PathItem&gt;" d="M46.751,28.088l75.981-.186L109.074,51.679a4.082,4.082,0,0,1-3.53,2.05l-43.89.04,2.98,5.134,44.681.261a7.733,7.733,0,0,0,6.741-3.883l15.739-27.4h0l2.838-4.94L137.469,18l-96.438.231Z" transform="translate(6.992 -18)" fill="#003c71"/>
    <path id="logoMark_PathItem_10" data-name="logoMark &lt;PathItem&gt;" d="M46.267,27.211l4,6.889L96.5,34a7.385,7.385,0,0,0,6.391-3.707l1.847-3.219Z" transform="translate(12.674 -8.159)" fill="#003c71"/>
    <path id="logoMark_PathItem_11" data-name="logoMark &lt;PathItem&gt;" d="M66.368,141.7l2.838-4.941,2.838-4.941-42.682-73.5-5.7-.038-5.7.031Z" transform="translate(-17.962 25.531)" fill="#bdd6e6"/>
    <path id="logoMark_PathItem_12" data-name="logoMark &lt;PathItem&gt;" d="M76.746,103.891a5.68,5.68,0,0,0-.013-5.682L53.494,58.47l-5.936.006L69.93,96.727a3.268,3.268,0,0,1,.006,3.265l-4.754,8.276L36.235,58.524H28.256l37.5,64.5Z" transform="translate(-6.51 25.336)" fill="#bdd6e6"/>
    <path id="logoMark_PathItem_13" data-name="logoMark &lt;PathItem&gt;" d="M93.114,19.654,90.277,24.6l-2.838,4.941,42.681,73.546,11.4.007Z" transform="translate(57.352 -16.205)" fill="#bdd6e6"/>
    <path id="logoMark_PathItem_14" data-name="logoMark &lt;PathItem&gt;" d="M80.083,47.839a5.685,5.685,0,0,0,.015,5.682l23.108,39.737,5.936.008L86.9,54.944a3.155,3.155,0,0,1-.008-3.2l4.754-8.278L120.571,93.3l3.989-.008,3.989-.01L91.074,28.706Z" transform="translate(48.552 -6.382)" fill="#bdd6e6"/>
  </g>
</svg>
