<?xml version="1.0" encoding="UTF-8"?>
<svg id="Layer_1" data-name="Layer 1" xmlns="http://www.w3.org/2000/svg" xmlns:xlink="http://www.w3.org/1999/xlink" viewBox="0 0 340.031 117.8568">
  <g id="logoMark">
    <a xlink:href="42.536862745098">
      <polygon id="logoMark_PathItem_" data-name="logoMark &amp;lt;PathItem&amp;gt;" points="107.9078 59.6643 87.597 95.0263 88.9017 97.3618 90.3401 99.7531 113.3728 59.6675 107.9078 59.6643" style="fill: #7bafd4; stroke-width: 0px;"/>
    </a>
    <a xlink:href="42.536862745098">
      <polygon id="logoMark_PathItem_-2" data-name="logoMark &amp;lt;PathItem&amp;gt;" points="99.1081 59.6839 83.18 87.4155 85.1006 90.7249 102.9345 59.6754 99.1081 59.6839" style="fill: #7bafd4; stroke-width: 0px;"/>
    </a>
    <a xlink:href="42.536862745098">
      <polygon id="logoMark_PathItem_-3" data-name="logoMark &amp;lt;PathItem&amp;gt;" points="90.7796 59.6643 78.9996 80.2121 80.4287 82.6745 93.6267 59.6681 90.7796 59.6643" style="fill: #7bafd4; stroke-width: 0px;"/>
    </a>
    <a xlink:href="42.536862745098">
      <polygon id="logoMark_PathItem_-4" data-name="logoMark &amp;lt;PathItem&amp;gt;" points="42.4027 20.4747 43.7743 22.838 23.465 58.2013 20.7325 58.2075 18 58.2138 41.0309 18.1114 42.4027 20.4747" style="fill: #7bafd4; stroke-width: 0px;"/>
    </a>
    <a xlink:href="42.536862745098">
      <polygon id="logoMark_PathItem_-5" data-name="logoMark &amp;lt;PathItem&amp;gt;" points="48.1877 30.4459 32.2608 58.1784 30.3476 58.1827 28.4345 58.1871 46.2669 27.1366 47.2273 28.7912 48.1877 30.4459" style="fill: #7bafd4; stroke-width: 0px;"/>
    </a>
    <a xlink:href="42.536862745098">
      <polygon id="logoMark_PathItem_-6" data-name="logoMark &amp;lt;PathItem&amp;gt;" points="52.3499 37.616 40.5331 58.1925 37.6859 58.1955 50.921 35.1535 52.3499 37.616" style="fill: #7bafd4; stroke-width: 0px;"/>
    </a>
    <a xlink:href="80.9443137254902">
      <path id="logoMark_PathItem_-7" data-name="logoMark &amp;lt;PathItem&amp;gt;" d="m90.3401,99.7531l-1.3715-2.3633-1.3715-2.3635-36.4346.0816,6.5497-11.4032c.3484-.6067.9941-.9814,1.6937-.983l21.0228-.0471-.7146-1.2312-.7145-1.2313-21.4022-.0964c-1.3341-.006-2.5687.7049-3.2331,1.8618l-7.5473,13.1403h0l-1.3609,2.3695-1.3611,2.3696,46.2452-.1037Z" style="fill: #003c71; stroke-width: 0px;"/>
    </a>
    <a xlink:href="80.9443137254902">
      <path id="logoMark_PathItem_-8" data-name="logoMark &amp;lt;PathItem&amp;gt;" d="m85.1006,90.7249l-.9603-1.6546-.9604-1.6547-22.1631.0497c-1.2661.0028-2.4346.6809-3.0652,1.7789l-.8866,1.5436,28.0356-.0628Z" style="fill: #003c71; stroke-width: 0px;"/>
    </a>
    <a xlink:href="80.9443137254902">
      <path id="logoMark_PathItem_-9" data-name="logoMark &amp;lt;PathItem&amp;gt;" d="m43.7743,22.838l36.4387-.0892-6.5496,11.4032c-.3485.6067-.9941.9815-1.6938.983l-21.0486.0185,1.4289,2.4625,21.4281.125c1.3341.006,2.5687-.7049,3.2331-1.8617l7.5475-13.1403h0l1.3609-2.3695,1.361-2.3695-46.2496.1114,2.7434,4.7266Z" style="fill: #003c71; stroke-width: 0px;"/>
    </a>
    <a xlink:href="80.9443137254902">
      <path id="logoMark_PathItem_-10" data-name="logoMark &amp;lt;PathItem&amp;gt;" d="m46.2669,27.1366l1.918,3.3046,22.1737-.0497c1.2661-.0028,2.4346-.6809,3.0652-1.7789l.8866-1.5436-28.0435.0676Z" style="fill: #003c71; stroke-width: 0px;"/>
    </a>
    <a xlink:href="19.0411764705882">
      <polygon id="logoMark_PathItem_-11" data-name="logoMark &amp;lt;PathItem&amp;gt;" points="41.2147 98.2025 42.5757 95.833 43.9366 93.4635 23.4676 58.1925 20.735 58.1986 18.0026 58.2047 41.2147 98.2025" style="fill: #bdd6e6; stroke-width: 0px;"/>
    </a>
    <a xlink:href="19.0411764705882">
      <path id="logoMark_PathItem_-12" data-name="logoMark &amp;lt;PathItem&amp;gt;" d="m51.6839,79.9751c.4849-.8442.4826-1.883-.0061-2.7251l-11.1447-19.0576-2.8472.003,10.7286,18.344c.2808.4838.2821,1.0807.0035,1.5658l-2.2798,3.9693-13.8709-23.9016-1.9133.0042-1.913.0043,17.9727,30.9695,5.2703-9.1758Z" style="fill: #bdd6e6; stroke-width: 0px;"/>
    </a>
    <a xlink:href="19.0411764705882">
      <polygon id="logoMark_PathItem_-13" data-name="logoMark &amp;lt;PathItem&amp;gt;" points="90.1607 19.6543 88.7997 22.0238 87.4388 24.3933 107.9078 59.6643 113.3728 59.6675 90.1607 19.6543" style="fill: #bdd6e6; stroke-width: 0px;"/>
    </a>
    <a xlink:href="19.0411764705882">
      <path id="logoMark_PathItem_-14" data-name="logoMark &amp;lt;PathItem&amp;gt;" d="m79.6915,37.8816c-.4849.8442-.4826,1.883.0061,2.7251l11.0821,19.0576,2.8471.0038-10.6659-18.3789c-.2808-.4558-.2821-1.0526-.0035-1.5377l2.2798-3.9693,13.8709,23.9016,1.9133-.0042,1.913-.0043-17.9727-30.9695-5.2703,9.1758Z" style="fill: #bdd6e6; stroke-width: 0px;"/>
    </a>
  </g>
  <g id="type">
    <a xlink:href="99.1058823529412">
      <path id="type_PathItem_" data-name="type &amp;lt;PathItem&amp;gt;" d="m249.8422,26.7239h-11.2205v25.0103h-30.4943v-22.5525c0-1.3499-1.0943-2.4442-2.4442-2.4442h-11.3139v65.7664h11.3713c1.3182,0,2.3868-1.0687,2.3868-2.3868v-25.1962h30.4943v27.5301h11.2205c1.4009,0,2.5365-1.1357,2.5365-2.5366V29.2604c0-1.4009-1.1357-2.5365-2.5365-2.5365Z" style="fill: #1d252d; stroke-width: 0px;"/>
    </a>
    <path id="type_CompoundPathItem_" data-name="type &amp;lt;CompoundPathItem&amp;gt;" d="m312.3433,36.7008c-6.5937-6.5155-15.4984-10.0448-24.9651-9.9318-.2213.0015-19.7871.081-27.6061.1076-1.3975.0048-2.5191,1.139-2.5191,2.5365v63.0377s27.0957.0413,30.16.053c9.614,0,18.4981-3.5772,25.0168-10.074,6.2086-6.1853,9.6179-14.3137,9.6011-22.8878-.0168-8.5702-3.457-16.6817-9.6876-22.8413Zm-24.535,42.6067h-16.7983v-39.3493h16.8177c11.4471,0,20.7602,8.826,20.7602,19.6744s-9.3221,19.675-20.7796,19.675Z" style="fill: #1d252d; stroke-width: 0px;"/>
    <a xlink:href="99.1058823529412">
      <path id="type_PathItem_-2" data-name="type &amp;lt;PathItem&amp;gt;" d="m182.4011,26.9065c-2.6613,0-5.0964,1.2764-6.3644,3.3472l-20.8359,30.9054-20.8689-30.961c-1.2453-2.0301-3.6708-3.2916-6.3301-3.2916h-7.1826l.0362,22.5272.035,21.7289.0341,21.1609h5.7655c1.9844,0,3.7965.0193,5.1663.0399,1.4134.0213,2.5602-1.119,2.5602-2.5326v-37.4236l13.0395,20.227c4.0993,4.475,11.1337,4.5347,15.3082.1297l13.2189-20.356v37.344c0,1.3849,1.1033,2.5126,2.4881,2.5327,1.3785.02,3.2205.039,5.241.039h5.7656l.1046-65.417h-7.1814Z" style="fill: #1d252d; stroke-width: 0px;"/>
    </a>
  </g>
</svg>